<?xml version="1.0" standalone="no"?>
<!DOCTYPE svg PUBLIC "-//W3C//DTD SVG 20010904//EN"
 "http://www.w3.org/TR/2001/REC-SVG-20010904/DTD/svg10.dtd">
<svg version="1.0" xmlns="http://www.w3.org/2000/svg"
 width="224.000000pt" height="225.000000pt" viewBox="0 0 224.000000 225.000000"
 preserveAspectRatio="xMidYMid meet">

<g transform="translate(0.000000,225.000000) scale(0.100000,-0.100000)"
fill="#000000" stroke="none">
<path d="M1015 2244 c-295 -44 -483 -133 -679 -322 -254 -245 -378 -618 -321
-968 38 -237 134 -430 296 -599 205 -213 443 -325 744 -350 92 -8 234 7 350
36 548 140 911 696 820 1259 -77 474 -439 844 -910 930 -67 12 -254 21 -300
14z m287 -108 c417 -80 736 -395 823 -814 22 -109 20 -310 -5 -418 -97 -417
-415 -719 -834 -793 -84 -15 -261 -14 -348 3 -387 74 -687 346 -805 731 -25
84 -27 103 -28 270 0 204 11 268 74 415 52 121 122 222 220 320 155 154 335
249 546 288 77 15 275 14 357 -2z"/>
<path d="M463 1635 c-18 -8 -42 -29 -53 -47 -19 -32 -20 -49 -20 -463 0 -414
1 -431 20 -463 39 -63 24 -62 730 -62 697 0 673 -2 719 56 21 26 21 36 21 469
0 439 0 443 -22 470 -44 56 -33 55 -725 55 -525 -1 -644 -3 -670 -15z m1255
-83 c-3 -8 -39 -42 -273 -258 -294 -270 -288 -266 -335 -243 -30 14 -558 488
-559 502 -1 4 263 7 585 7 322 0 584 -4 582 -8z m-996 -295 c80 -73 146 -134
145 -137 -1 -3 -38 -39 -82 -79 -44 -41 -114 -106 -155 -145 -41 -38 -92 -86
-112 -105 l-38 -35 0 358 0 358 48 -42 c26 -23 113 -101 194 -173z m1068 -143
l0 -355 -190 177 c-105 98 -189 182 -187 187 2 7 368 346 375 347 1 0 2 -160
2 -356z m-801 -108 c98 -87 190 -87 297 0 l55 45 57 -53 c31 -29 84 -78 117
-109 33 -30 92 -84 132 -120 39 -35 71 -67 72 -71 1 -5 -263 -8 -586 -8 l-588
0 50 48 c89 83 339 312 341 312 2 0 26 -20 53 -44z"/>
</g>
</svg>
