<?xml version="1.0" standalone="no"?>
<!DOCTYPE svg PUBLIC "-//W3C//DTD SVG 20010904//EN"
 "http://www.w3.org/TR/2001/REC-SVG-20010904/DTD/svg10.dtd">
<svg version="1.0" xmlns="http://www.w3.org/2000/svg"
 width="224.000000pt" height="224.000000pt" viewBox="0 0 224.000000 224.000000"
 preserveAspectRatio="xMidYMid meet">

<g transform="translate(0.000000,224.000000) scale(0.100000,-0.100000)"
fill="#000000" stroke="none">
<path d="M990 1934 c-195 -38 -346 -119 -476 -256 -119 -126 -190 -266 -220
-439 -51 -294 66 -609 298 -799 35 -28 109 -74 166 -102 89 -44 106 -49 128
-40 23 11 24 16 24 101 l0 89 -57 -5 c-114 -10 -183 28 -233 127 -18 35 -48
73 -75 95 -50 42 -54 51 -25 60 39 12 88 -15 147 -81 31 -36 69 -72 84 -80 53
-27 154 -13 165 23 3 10 12 33 20 51 7 17 14 35 14 39 1 4 -27 13 -61 20 -199
40 -300 170 -301 388 -1 98 15 155 56 210 22 28 23 35 14 81 -10 51 1 141 21
173 13 20 88 0 170 -45 62 -34 64 -35 120 -23 70 15 240 15 305 0 48 -11 52
-11 130 28 45 22 98 43 118 47 34 6 39 4 48 -21 17 -45 23 -128 11 -170 -9
-34 -8 -42 9 -60 29 -31 59 -105 66 -166 8 -73 -11 -192 -42 -256 -45 -94
-152 -168 -270 -188 -64 -11 -64 -10 -38 -61 22 -44 24 -58 24 -206 0 -158 0
-158 24 -170 22 -9 39 -4 128 40 57 28 131 74 166 102 332 272 408 763 173
1121 -72 109 -196 223 -307 281 -131 68 -213 89 -369 93 -71 2 -141 1 -155 -1z"/>
</g>
</svg>
