<?xml version="1.0" standalone="no"?>
<!DOCTYPE svg PUBLIC "-//W3C//DTD SVG 20010904//EN"
 "http://www.w3.org/TR/2001/REC-SVG-20010904/DTD/svg10.dtd">
<svg version="1.0" xmlns="http://www.w3.org/2000/svg"
 width="194.000000pt" height="101.000000pt" viewBox="0 0 194.000000 101.000000"
 preserveAspectRatio="xMidYMid meet">

<g transform="translate(0.000000,101.000000) scale(0.100000,-0.100000)"
fill="#000000" stroke="none">
<path d="M502 985 c-68 -31 -108 -76 -122 -135 -15 -61 0 -117 41 -164 l30
-35 -45 -6 c-55 -9 -63 -4 -76 45 -13 50 -48 75 -92 66 -18 -3 -58 -10 -89
-15 -31 -5 -70 -16 -86 -25 -38 -19 -67 -86 -58 -133 7 -37 50 -93 71 -93 9 0
14 -11 14 -31 0 -20 9 -40 28 -57 30 -29 9 -29 277 -10 38 3 39 2 48 -34 7
-31 5 -41 -15 -68 -19 -26 -23 -44 -23 -99 0 -58 4 -73 27 -103 34 -44 119
-88 171 -88 80 0 129 21 184 76 46 48 54 53 85 48 20 -4 49 0 70 9 27 11 57
14 118 10 76 -6 82 -8 96 -34 8 -16 28 -36 45 -44 28 -15 33 -15 74 5 24 11
50 31 59 44 8 13 36 35 61 49 43 24 48 25 80 11 41 -17 75 -18 125 -3 24 7 43
8 54 2 22 -12 127 2 167 22 16 9 39 30 50 48 17 27 19 42 13 101 -3 38 -10 82
-14 97 -7 22 -3 32 21 55 53 50 60 116 20 173 -15 22 -18 42 -15 127 4 95 3
102 -20 127 -51 55 -139 44 -181 -23 -30 -47 -54 -56 -96 -34 -25 12 -51 15
-110 12 l-77 -5 -16 33 c-23 50 -58 68 -109 59 -23 -4 -60 -7 -82 -6 -22 1
-56 -4 -77 -10 -26 -8 -45 -9 -67 -1 -53 19 -130 -38 -157 -116 0 -1 -15 1
-32 4 -24 5 -32 13 -38 36 -10 47 -81 112 -136 126 -74 19 -137 15 -196 -13z
m187 -45 c106 -30 134 -162 45 -208 l-33 -17 25 -50 c31 -60 76 -109 117 -126
25 -11 38 -10 77 4 61 22 77 21 90 -2 34 -64 -99 -117 -193 -78 -60 26 -129
119 -157 215 -7 23 -17 42 -22 42 -14 0 -9 -50 7 -56 25 -10 17 -42 -21 -84
-38 -42 -55 -48 -72 -27 -7 8 -6 19 3 37 20 36 19 163 -2 207 -19 41 -9 53 45
53 31 0 32 -1 32 -46 l0 -46 33 7 c56 12 73 53 38 96 -16 21 -28 24 -80 24
-49 -1 -65 -5 -86 -25 -30 -28 -31 -40 -5 -82 25 -41 25 -55 1 -63 -60 -19
-104 81 -67 154 19 35 37 50 83 67 46 16 96 17 142 4z m655 -46 c11 -29 6 -53
-13 -64 -39 -21 -73 19 -51 60 13 24 55 27 64 4z m-265 -145 c5 -84 10 -111
24 -127 27 -29 13 -42 -42 -42 l-47 0 4 113 c4 95 2 115 -12 126 -24 20 -19
39 16 61 l33 20 8 -23 c5 -12 12 -70 16 -128z m125 128 c3 -12 8 -68 12 -122
7 -109 15 -135 42 -135 29 0 42 21 42 67 0 36 -4 45 -22 52 -22 8 -22 8 9 40
17 17 36 31 41 31 14 0 22 -36 22 -96 0 -37 6 -59 21 -79 18 -22 20 -29 8 -36
-20 -12 -93 -11 -106 2 -8 8 -18 6 -37 -6 -35 -23 -102 -13 -89 13 13 27 9
200 -5 214 -19 19 -14 45 10 62 31 22 45 20 52 -7z m636 8 c18 -21 5 -45 -25
-45 l-26 0 25 -33 c47 -61 27 -108 -51 -123 -18 -3 -33 -12 -33 -20 0 -10 15
-13 61 -11 52 2 63 -1 79 -20 33 -42 -3 -92 -81 -113 -70 -19 -149 12 -133 53
10 28 35 28 71 0 33 -25 37 -26 62 -12 49 28 33 44 -49 49 -67 4 -75 7 -78 26
-2 11 4 26 12 33 13 11 13 16 -4 43 -29 47 -11 84 48 102 40 11 46 17 44 35
-7 44 50 70 78 36z m-326 -79 c47 34 96 1 96 -64 0 -18 7 -44 16 -58 16 -24
16 -26 -11 -54 -16 -17 -37 -30 -47 -30 -17 0 -18 6 -12 59 7 67 -6 104 -34
94 -37 -14 -43 -61 -12 -108 23 -35 14 -45 -47 -45 -46 0 -61 11 -38 30 20 17
20 99 0 106 -24 9 -18 41 13 62 23 17 29 18 42 7 13 -11 18 -11 34 1z m-565
-61 c35 -34 36 -113 3 -148 -71 -75 -183 -18 -169 85 12 90 104 125 166 63z
m-673 -69 c-3 -14 -2 -27 3 -30 4 -3 11 -19 14 -35 5 -25 12 -30 39 -33 28 -3
33 -7 36 -33 2 -16 8 -34 13 -39 10 -11 -18 -46 -37 -46 -9 0 -12 13 -11 40 1
42 -5 56 -22 45 -14 -8 -14 -41 -1 -66 10 -17 7 -19 -26 -19 -31 0 -35 3 -29
18 10 24 6 104 -6 119 -7 8 -7 19 1 33 10 19 9 21 -12 18 -22 -3 -23 -7 -19
-63 2 -33 7 -65 12 -71 11 -14 -26 -64 -48 -64 -12 0 -13 8 -8 40 4 21 4 48 0
59 -5 17 -9 19 -25 9 -28 -18 -70 14 -70 52 0 47 31 70 94 70 30 0 58 5 61 10
3 6 15 10 27 10 16 0 19 -4 14 -24z m219 -102 c25 -25 15 -49 -23 -52 -17 -2
-32 -8 -32 -14 0 -6 13 -8 35 -4 19 4 35 3 35 -2 0 -34 -82 -45 -100 -13 -35
66 35 135 85 85z m214 -90 c24 -31 28 -79 7 -87 -8 -3 -20 1 -27 9 -18 22 -61
41 -81 37 -16 -4 -35 -40 -25 -49 2 -3 40 -19 83 -37 91 -38 117 -70 118 -146
1 -74 -49 -125 -137 -137 -55 -8 -127 21 -153 62 -57 86 30 200 117 154 26
-14 10 -44 -31 -58 -24 -9 -30 -17 -30 -40 0 -35 15 -50 58 -58 59 -12 112 29
112 85 0 35 -40 69 -110 96 -39 15 -77 36 -85 48 -23 32 -18 71 11 100 25 25
75 44 92 33 4 -2 14 -1 22 5 24 14 37 11 59 -17z m1104 -46 c9 -18 13 -36 11
-40 -8 -13 -39 -9 -60 7 -24 18 -34 19 -34 1 0 -8 21 -24 48 -37 42 -21 47
-28 50 -61 4 -44 -8 -52 -87 -62 -58 -8 -80 6 -81 52 0 26 22 29 60 7 33 -19
52 -19 48 1 -2 9 -21 24 -43 33 -57 23 -65 29 -65 55 0 46 30 64 126 75 6 0
18 -13 27 -31z m-202 -17 c16 -16 29 -39 29 -50 0 -29 -38 -51 -88 -51 -39 0
-43 -2 -31 -16 13 -15 23 -15 92 2 23 5 27 3 27 -15 0 -23 -52 -61 -83 -61
-35 0 -79 31 -94 67 -20 49 -10 96 28 127 41 35 83 34 120 -3z m-336 -1 c4 -7
12 -7 25 0 34 18 75 11 101 -16 19 -20 24 -36 24 -79 0 -43 -5 -59 -24 -79
-27 -29 -72 -34 -91 -11 -18 21 -5 45 24 45 41 0 50 71 14 94 -13 8 -23 8 -35
0 -25 -16 -31 -129 -8 -154 19 -21 9 -49 -27 -74 -44 -31 -48 -23 -48 93 0 88
-3 110 -15 115 -22 8 -18 35 8 57 25 21 43 24 52 9z m-339 -15 c28 -11 35 -19
32 -37 -2 -18 -8 -22 -28 -19 -62 9 -73 6 -80 -19 -4 -14 -3 -36 2 -49 8 -22
12 -23 63 -16 50 6 55 5 55 -13 0 -34 -33 -53 -86 -50 -42 3 -51 7 -71 37 -40
60 -21 140 40 166 40 18 32 18 73 0z m203 5 c36 -18 55 -100 36 -146 -16 -40
-41 -54 -93 -54 -86 0 -126 117 -63 181 31 31 83 39 120 19z"/>
<path d="M1722 768 c-18 -18 -15 -36 8 -43 26 -8 63 12 56 32 -3 8 -6 17 -6
19 0 9 -47 3 -58 -8z"/>
<path d="M853 718 c-18 -24 -22 -48 -13 -74 8 -21 15 -25 42 -22 30 3 33 6 36
39 4 53 -39 90 -65 57z"/>
<path d="M134 642 c-6 -4 -13 -14 -17 -23 -4 -13 2 -18 26 -22 39 -6 40 -5 31
27 -6 26 -20 32 -40 18z"/>
<path d="M1516 384 c-9 -23 -8 -24 18 -24 41 0 58 10 45 26 -16 19 -55 18 -63
-2z"/>
<path d="M1049 346 c-16 -34 1 -80 30 -84 44 -7 66 41 41 89 -15 28 -58 25
-71 -5z"/>
</g>
</svg>
